# Apple ModelIO OBJ File: crystal
mtllib crystal.mtl
g 
v 0.0335668 -0.120651 -0.0487323
v 0.0589868 -0.120651 -0.00470352
v 0.00814673 -0.161312 -0.00470352
v 0.0357859 -0.112287 -0.0533061
v 0.0479899 0.0839262 -0.0744441
v 0.0884654 0.0839262 -0.0043384
v 0.0640574 -0.112287 -0.0043384
v 0.0464719 0.0924721 -0.0711524
v 0.00808804 0.160451 -0.00466963
v 0.0848558 0.0924721 -0.00466963
v -0.02542 -0.120651 -0.0534358
v 0.02542 -0.120651 -0.0534358
v -1.8204e-18 -0.161312 -0.00940704
v -0.0282715 -0.112287 -0.0576445
v -0.0404755 0.0839262 -0.0787825
v 0.0282715 -0.112287 -0.0576445
v 0.0404755 0.0839262 -0.0787825
v -0.0383839 0.0924721 -0.0758221
v 8.67362e-19 0.160451 -0.00933927
v 0.0383839 0.0924721 -0.0758221
v -0.0589868 -0.120651 -0.00470352
v -0.0335668 -0.120651 -0.0487323
v -0.00814673 -0.161312 -0.00470352
v -0.0640574 -0.112287 -0.0043384
v -0.0884654 0.0839262 -0.0043384
v -0.0479899 0.0839262 -0.0744441
v -0.0357859 -0.112287 -0.0533061
v -0.0848558 0.0924721 -0.00466963
v -0.00808804 0.160451 -0.00466963
v -0.0464719 0.0924721 -0.0711524
v -0.0335668 -0.120651 0.0487323
v -0.0589868 -0.120651 0.00470352
v -0.00814673 -0.161312 0.00470352
v -0.0357859 -0.112287 0.0533061
v -0.0479899 0.0839262 0.0744441
v -0.0884654 0.0839262 0.0043384
v -0.0640574 -0.112287 0.0043384
v -0.0464719 0.0924721 0.0711524
v -0.00808804 0.160451 0.00466963
v -0.0848558 0.0924721 0.00466963
v 0.02542 -0.120651 0.0534358
v -0.02542 -0.120651 0.0534358
v 1.13619e-32 -0.161312 0.00940704
v 0.0282715 -0.112287 0.0576445
v 0.0404755 0.0839262 0.0787825
v -0.0282715 -0.112287 0.0576445
v -0.0404755 0.0839262 0.0787825
v 0.0383839 0.0924721 0.0758221
v -1.73472e-18 0.160451 0.00933927
v -0.0383839 0.0924721 0.0758221
v 0.0589868 -0.120651 0.00470352
v 0.0335668 -0.120651 0.0487323
v 0.00814673 -0.161312 0.00470352
v 0.0640574 -0.112287 0.0043384
v 0.0884654 0.0839262 0.0043384
v 0.0479899 0.0839262 0.0744441
v 0.0357859 -0.112287 0.0533061
v 0.0848558 0.0924721 0.00466963
v 0.00808804 0.160451 0.00466963
v 0.0464719 0.0924721 0.0711524
v 0.0603783 -0.120528 -3.81693e-18
v 0.00662767 -0.163305 -4.98733e-18
v 0.0350578 -0.116847 -0.0518629
v 0.0624435 -0.116847 -0.00442946
v 0.0301891 -0.120528 -0.0522891
v 0.00331383 -0.163305 -0.00573973
v 0.0896284 0.0839306 -6.50521e-18
v 0.0652194 -0.112292 -4.07825e-18
v 0.0477282 0.0885257 -0.0738224
v 0.0877962 0.0885257 -0.00442269
v 0.0448142 0.0839306 -0.0776204
v 0.0326097 -0.112292 -0.0564817
v 0.0862217 0.0923533 -7.37257e-18
v 0.00659504 0.162593 -5.884e-18
v 0.0431108 0.0923533 -0.0746701
v 0.00329752 0.162593 -0.00571147
v -0.0273857 -0.116847 -0.0562924
v 0.0273857 -0.116847 -0.0562924
v -0.0301891 -0.120528 -0.0522891
v -0.00331383 -0.163305 -0.00573973
v -0.0400679 0.0885257 -0.0782451
v 0.0400679 0.0885257 -0.0782451
v -0.0448142 0.0839306 -0.0776204
v -0.0326097 -0.112292 -0.0564817
v -0.0431108 0.0923533 -0.0746701
v -0.00329752 0.162593 -0.00571147
v -0.0624435 -0.116847 -0.00442946
v -0.0350578 -0.116847 -0.0518629
v -0.0603783 -0.120528 -1.30104e-17
v -0.00662767 -0.163305 -5.63785e-18
v -0.0877962 0.0885257 -0.00442269
v -0.0477282 0.0885257 -0.0738224
v -0.0896284 0.0839306 -1.86494e-17
v -0.0652194 -0.112292 -1.30104e-17
v -0.0862217 0.0923533 -1.8634e-17
v -0.00659504 0.162593 -6.75136e-18
v -0.0350578 -0.116847 0.0518629
v -0.0624435 -0.116847 0.00442946
v -0.0301891 -0.120528 0.0522891
v -0.00331383 -0.163305 0.00573973
v -0.0477282 0.0885257 0.0738224
v -0.0877962 0.0885257 0.00442269
v -0.0448142 0.0839306 0.0776204
v -0.0326097 -0.112292 0.0564817
v -0.0431108 0.0923533 0.0746701
v -0.00329752 0.162593 0.00571147
v 0.0273857 -0.116847 0.0562924
v -0.0273857 -0.116847 0.0562924
v 0.0301891 -0.120528 0.0522891
v 0.00331383 -0.163305 0.00573973
v 0.0400679 0.0885257 0.0782451
v -0.0400679 0.0885257 0.0782451
v 0.0448142 0.0839306 0.0776204
v 0.0326097 -0.112292 0.0564817
v 0.0431108 0.0923533 0.0746701
v 0.00329752 0.162593 0.00571147
v 0.0350578 -0.116847 0.0518629
v 0.0624435 -0.116847 0.00442946
v 0.0477282 0.0885257 0.0738224
v 0.0877962 0.0885257 0.00442269
v -1.62179e-18 -0.165434 -5.677e-18
v 0.031859 -0.116877 0.0551813
v 0.0637179 -0.116877 -3.54248e-18
v -0.031859 -0.116877 0.0551813
v -0.0637179 -0.116877 -1.31936e-17
v -0.031859 -0.116877 -0.0551813
v 0.031859 -0.116877 -0.0551813
v 0.044551 0.088557 0.0771645
v -6.2944e-19 0.164852 -6.41486e-18
v 0.0891019 0.088557 -6.93296e-18
v -0.044551 0.088557 0.0771645
v -0.0891019 0.088557 -1.93906e-17
v -0.044551 0.088557 -0.0771645
v 0.044551 0.088557 -0.0771645
vn 0.587562 -0.734639 -0.339229
vn 0.861043 -0.10711 -0.497124
vn 0.619146 0.699198 -0.357464
vn 0 -0.734639 -0.678458
vn 0 -0.10711 -0.994247
vn 0 0.699198 -0.714928
vn -0.587562 -0.734639 -0.339229
vn -0.861043 -0.10711 -0.497124
vn -0.619146 0.699198 -0.357464
vn -0.587562 -0.734639 0.339229
vn -0.861043 -0.10711 0.497124
vn -0.619146 0.699198 0.357464
vn 0 -0.734639 0.678458
vn 0 -0.10711 0.994247
vn 0 0.699198 0.714928
vn 0.587562 -0.734639 0.339229
vn 0.861043 -0.10711 0.497124
vn 0.619146 0.699198 0.357464
vn 0.685374 -0.682892 -0.252826
vn 0.685229 -0.728327 -0.000228079
vn 0.474851 -0.836169 -0.274476
vn 0.495851 -0.868407 -0.000229964
vn 0.561413 -0.682948 -0.46733
vn 0.702853 -0.473743 -0.530627
vn 0.810963 -0.473743 -0.343375
vn 0.123733 -0.682892 -0.719964
vn 0.342417 -0.728327 -0.59354
vn -0.00027781 -0.836169 -0.548471
vn 0.247727 -0.868407 -0.429535
vn 0.937496 0.0398571 -0.345706
vn 0.999999 0.000992718 7.78387e-08
vn 0.974851 -0.222858 6.97273e-08
vn 0.911394 -0.240176 -0.33418
vn 0.768138 0.0398571 -0.639043
vn 0.749079 0.347097 -0.564273
vn 0.863214 0.347096 -0.366586
vn 0.169359 0.039857 -0.984748
vn 0.5 0.000992743 -0.866025
vn 0.487426 -0.222858 -0.844246
vn 0.166289 -0.240176 -0.95638
vn 0.73413 0.622654 0.270841
vn 0.736063 0.676913 0.000184229
vn 0.504695 0.812543 0.291646
vn 0.528325 0.849042 0.000185608
vn 0.60162 0.622655 -0.500354
vn 0.368191 0.676913 -0.637357
vn 0.50492 0.812543 -0.291256
vn 0.264324 0.849042 -0.45745
vn -0.124013 -0.682948 -0.719863
vn -0.10811 -0.473744 -0.874002
vn 0.10811 -0.473743 -0.874002
vn -0.561641 -0.682892 -0.467138
vn -0.342812 -0.728327 -0.593312
vn -0.475129 -0.836169 -0.273995
vn -0.248125 -0.868407 -0.429305
vn -0.169359 0.039857 -0.984748
vn -0.114135 0.347097 -0.930858
vn 0.114135 0.347097 -0.930858
vn -0.768138 0.0398571 -0.639043
vn -0.5 0.000992741 -0.866025
vn -0.487426 -0.222858 -0.844246
vn -0.745105 -0.240176 -0.622201
vn -0.13251 0.622655 -0.771195
vn -0.367872 0.676913 -0.637541
vn 0.000225295 0.812543 -0.582902
vn -0.264002 0.849042 -0.457636
vn -0.685426 -0.682948 -0.252533
vn -0.810963 -0.473743 -0.343375
vn -0.702853 -0.473743 -0.530627
vn -0.685374 -0.682892 0.252826
vn -0.685229 -0.728327 0.000228079
vn -0.474851 -0.836169 0.274476
vn -0.495851 -0.868407 0.000229964
vn -0.937496 0.0398571 -0.345706
vn -0.863214 0.347096 -0.366586
vn -0.749079 0.347097 -0.564273
vn -0.937496 0.0398571 0.345706
vn -0.999999 0.000992718 -7.78387e-08
vn -0.974851 -0.222858 -6.97273e-08
vn -0.911394 -0.240176 0.33418
vn -0.73413 0.622654 -0.270841
vn -0.736063 0.676913 -0.000184229
vn -0.504695 0.812543 -0.291646
vn -0.528325 0.849042 -0.000185608
vn -0.561413 -0.682948 0.46733
vn -0.702853 -0.473743 0.530627
vn -0.810963 -0.473743 0.343375
vn -0.123733 -0.682892 0.719964
vn -0.342417 -0.728327 0.59354
vn 0.00027781 -0.836169 0.548471
vn -0.247727 -0.868407 0.429535
vn -0.768138 0.0398571 0.639043
vn -0.749079 0.347097 0.564273
vn -0.863214 0.347096 0.366586
vn -0.169359 0.039857 0.984748
vn -0.5 0.000992743 0.866025
vn -0.487426 -0.222858 0.844246
vn -0.166289 -0.240176 0.95638
vn -0.60162 0.622655 0.500354
vn -0.368191 0.676913 0.637357
vn -0.50492 0.812543 0.291256
vn -0.264324 0.849042 0.45745
vn 0.124013 -0.682948 0.719863
vn 0.10811 -0.473744 0.874002
vn -0.10811 -0.473743 0.874002
vn 0.561641 -0.682892 0.467138
vn 0.342812 -0.728327 0.593312
vn 0.475129 -0.836169 0.273995
vn 0.248125 -0.868407 0.429305
vn 0.169359 0.039857 0.984748
vn 0.114135 0.347097 0.930858
vn -0.114135 0.347097 0.930858
vn 0.768138 0.039857 0.639043
vn 0.5 0.000992741 0.866025
vn 0.487426 -0.222858 0.844246
vn 0.745105 -0.240176 0.622201
vn 0.13251 0.622655 0.771195
vn 0.367872 0.676913 0.637541
vn -0.000225295 0.812543 0.582902
vn 0.264002 0.849042 0.457636
vn 0.702853 -0.473744 0.530627
vn 0.911394 -0.240176 0.33418
vn 0.810963 -0.473743 0.343375
vn 0.601441 0.6227 0.500513
vn 0.749079 0.347097 0.564273
vn 0.863214 0.347096 0.366586
vn 0 -1 -0
vn 0.431191 -0.506258 0.746845
vn 0.862382 -0.506258 -3.91083e-09
vn -0.431191 -0.506258 0.746845
vn -0.862382 -0.506258 -0
vn -0.431191 -0.506258 -0.746845
vn 0.431191 -0.506258 -0.746845
vn 0.463593 0.374601 0.802967
vn 0 1 -0
vn 0.734178 0.6227 -0.270606
vn 0.927186 0.374601 -0
vn -0.463593 0.374601 0.802967
vn -0.927186 0.374601 -3.97527e-09
vn -0.463593 0.374601 -0.802967
vn 0.463593 0.374601 -0.802967
vn 0.166289 -0.240176 0.95638
vn 0.685426 -0.682948 0.252533
vn -0.745105 -0.240176 0.622201
vn -0.911394 -0.240176 -0.33418
vn -0.166289 -0.240176 -0.95638
vn 0.745105 -0.240176 -0.622201
vn 0.937496 0.039857 0.345706
vn -0.132737 0.6227 0.77112
vn -0.734178 0.6227 0.270606
vn -0.601441 0.6227 -0.500513
vn 0.132737 0.6227 -0.77112
vt 250.084 -249.122
vt 250.147 -249.012
vt 250.02 -249.012
vt 250.133 -249.281
vt 250.186 -248.79
vt 250.011 -248.79
vt 250.011 -249.281
vt 250.116 -248.822
vt 250.02 -248.988
vt 250.212 -248.988
vt 249.936 -249.134
vt 250.064 -249.134
vt 250 -249.023
vt 250.071 -249.281
vt 250.101 -248.79
vt 249.929 -249.281
vt 249.899 -248.79
vt 250.096 -248.769
vt 250 -248.599
vt 249.904 -248.769
vt 249.853 -249.012
vt 249.916 -249.122
vt 249.98 -249.012
vt 249.989 -249.281
vt 249.989 -248.79
vt 249.814 -248.79
vt 249.867 -249.281
vt 249.788 -248.988
vt 249.98 -248.988
vt 249.884 -248.822
vt 249.916 -248.878
vt 249.853 -248.988
vt 249.884 -249.178
vt 249.788 -249.012
vt 250.064 -248.866
vt 249.936 -248.866
vt 250 -248.976
vt 250.147 -248.988
vt 250.084 -248.878
vt 250.212 -249.012
vt 250.116 -249.178
vt 250.151 -249
vt 250.017 -249
vt 250.122 -249.302
vt 250.13 -249.292
vt 250.011 -249.292
vt 250.012 -249.302
vt 250.075 -249.131
vt 250.008 -249.014
vt 250 -248.79
vt 250 -249.281
vt 250.185 -248.779
vt 250.011 -248.779
vt 249.888 -248.79
vt 249.918 -249.281
vt 250.216 -249
vt 250.016 -249
vt 250.108 -248.813
vt 250.008 -248.986
vt 250.064 -249.302
vt 250.068 -249.292
vt 249.932 -249.292
vt 249.936 -249.302
vt 249.925 -249.131
vt 249.992 -249.014
vt 250.1 -248.779
vt 249.9 -248.779
vt 249.806 -248.79
vt 249.859 -249.281
vt 249.904 -248.81
vt 249.892 -248.813
vt 250 -248.977
vt 249.992 -248.986
vt 249.988 -249.302
vt 249.989 -249.292
vt 249.878 -249.302
vt 249.87 -249.292
vt 249.849 -249
vt 249.983 -249
vt 249.989 -248.779
vt 249.815 -248.779
vt 249.784 -249
vt 249.984 -249
vt 249.925 -248.869
vt 249.892 -249.187
vt 250.075 -248.869
vt 250.096 -249.19
vt 250.108 -249.187
vt 249.822 -248.769
vt 249.988 -248.769
vt 250 -249
vt 250.08 -249.292
vt 250.075 -249.301
vt 250 -249.292
vt 249.912 -248.87
vt 249.92 -248.862
vt 250 -249.301
vt 250.088 -249.13
vt 250.08 -249.138
vt 249.807 -248.779
vt 250.012 -248.769
vt 250 -248.779
vt 250 -248.769
vt 249.889 -248.779
vt 250.082 -249.281
vt 249.862 -249.292
vt 250.08 -248.862
vt 250.088 -248.87
vt 250.141 -249.281
vt 250.138 -249.292
vt 249.92 -249.292
vt 249.925 -249.301
vt 249.92 -249.138
vt 249.912 -249.13
vt 250.111 -248.779
vt 250.112 -248.79
vt 250.108 -248.769
vt 250.119 -249.185
vt 250.111 -249.193
vt 250.193 -248.779
vt 250.194 -248.79
vt 250.187 -248.769
vt 250.178 -248.769
vt 249.892 -248.769
vt 249.881 -248.815
vt 249.889 -248.807
vt 250.096 -248.81
vt 249.904 -249.19
usemtl material_1
f 1/1/1 2/2/1 3/3/1
f 4/4/2 5/5/2 6/6/2
f 4/4/2 6/6/2 7/7/2
f 8/8/3 9/9/3 10/10/3
f 11/11/4 12/12/4 13/13/4
f 14/14/5 15/15/5 16/16/5
f 15/15/5 17/17/5 16/16/5
f 18/18/6 19/19/6 20/20/6
f 21/21/7 22/22/7 23/23/7
f 24/24/8 25/25/8 26/26/8
f 24/24/8 26/26/8 27/27/8
f 28/28/9 29/29/9 30/30/9
f 31/31/10 32/32/10 33/29/10
f 34/4/11 35/5/11 36/6/11
f 34/4/11 36/6/11 37/7/11
f 38/33/12 39/23/12 40/34/12
f 41/35/13 42/36/13 43/37/13
f 44/14/14 45/15/14 46/16/14
f 45/15/14 47/17/14 46/16/14
f 48/18/15 49/19/15 50/20/15
f 51/38/16 52/39/16 53/9/16
f 54/24/17 55/25/17 56/26/17
f 54/24/17 56/26/17 57/27/17
f 58/40/18 59/3/18 60/41/18
f 2/2/19 61/42/20 3/3/21
f 61/42/20 62/43/22 3/3/21
f 1/44/23 63/45/24 64/46/25
f 1/44/23 64/46/25 2/47/19
f 12/12/26 65/48/27 13/13/28
f 65/48/27 66/49/29 13/13/28
f 6/6/30 67/50/31 68/51/32
f 6/6/30 68/51/32 7/7/33
f 5/5/34 69/52/35 70/53/36
f 5/5/34 70/53/36 6/6/30
f 17/17/37 71/54/38 72/55/39
f 17/17/37 72/55/39 16/16/40
f 58/40/41 73/56/42 59/3/43
f 73/56/42 74/57/44 59/3/43
f 8/8/45 75/58/46 9/9/47
f 75/58/46 76/59/48 9/9/47
f 11/60/49 77/61/50 78/62/51
f 11/60/49 78/62/51 12/63/26
f 22/22/52 79/64/53 23/23/54
f 79/64/53 80/65/55 23/23/54
f 15/15/56 81/66/57 82/67/58
f 15/15/56 82/67/58 17/17/37
f 26/26/59 83/68/60 84/69/61
f 26/26/59 84/69/61 27/27/62
f 18/70/63 85/71/64 19/72/65
f 85/71/64 86/73/66 19/72/65
f 21/74/67 87/75/68 22/76/52
f 87/75/68 88/77/69 22/76/52
f 32/32/70 89/78/71 33/29/72
f 89/78/71 90/79/73 33/29/72
f 25/25/74 91/80/75 26/26/59
f 91/80/75 92/81/76 26/26/59
f 36/6/77 93/50/78 94/51/79
f 36/6/77 94/51/79 37/7/80
f 28/28/81 95/82/82 29/29/83
f 95/82/82 96/83/84 29/29/83
f 31/44/85 97/45/86 98/46/87
f 31/44/85 98/46/87 32/47/70
f 42/36/88 99/84/89 43/37/90
f 99/84/89 100/73/91 43/37/90
f 35/5/92 101/52/93 102/53/94
f 35/5/92 102/53/94 36/6/77
f 47/17/95 103/54/96 104/55/97
f 47/17/95 104/55/97 46/16/98
f 38/33/99 105/85/100 39/23/101
f 105/85/100 106/65/102 39/23/101
f 41/60/103 107/61/104 108/62/105
f 41/60/103 108/62/105 42/63/88
f 52/39/106 109/86/107 53/9/108
f 109/86/107 110/59/109 53/9/108
f 45/15/110 111/66/111 112/67/112
f 45/15/110 112/67/112 47/17/95
f 56/26/113 113/68/114 114/69/115
f 56/26/113 114/69/115 57/27/116
f 48/87/117 115/88/118 49/13/119
f 115/88/118 116/49/120 49/13/119
f 57/27/116 117/77/121 54/24/122
f 117/77/121 118/75/123 54/24/122
f 60/89/124 119/81/125 58/90/41
f 119/81/125 120/80/126 58/90/41
f 66/49/29 3/3/21 121/91/127
f 3/3/21 62/43/22 121/91/127
f 107/61/104 41/60/103 122/92/128
f 41/60/103 109/93/107 122/92/128
f 68/51/32 54/24/122 118/75/123
f 68/51/32 118/75/123 123/94/129
f 97/95/86 31/31/85 124/96/130
f 31/31/85 99/84/89 124/96/130
f 87/75/68 21/74/67 125/94/131
f 21/74/67 89/97/71 125/94/131
f 77/61/50 11/60/49 126/92/132
f 11/60/49 79/93/53 126/92/132
f 63/98/24 1/1/23 127/99/133
f 1/1/23 65/48/27 127/99/133
f 113/68/114 56/26/113 128/100/134
f 56/26/113 119/81/125 128/100/134
f 106/65/102 49/13/119 129/91/135
f 49/13/119 116/49/120 129/91/135
f 70/53/36 10/101/136 130/102/137
f 10/101/136 73/103/42 130/102/137
f 103/54/96 47/17/95 131/104/138
f 47/17/95 112/67/112 131/104/138
f 93/50/78 36/6/77 132/102/139
f 36/6/77 102/53/94 132/102/139
f 83/68/60 26/26/59 133/100/140
f 26/26/59 92/81/76 133/100/140
f 71/54/38 17/17/37 134/104/141
f 17/17/37 82/67/58 134/104/141
f 80/65/55 13/13/28 121/91/127
f 13/13/28 66/49/29 121/91/127
f 90/79/73 23/23/54 121/91/127
f 23/23/54 80/65/55 121/91/127
f 100/73/91 33/29/72 121/91/127
f 33/29/72 90/79/73 121/91/127
f 110/59/109 43/37/90 121/91/127
f 43/37/90 100/73/91 121/91/127
f 62/43/22 53/9/108 121/91/127
f 53/9/108 110/59/109 121/91/127
f 114/105/115 44/14/142 107/61/104
f 114/105/115 107/61/104 122/92/128
f 117/77/121 57/27/116 114/69/115
f 117/77/121 114/69/115 122/106/128
f 109/86/107 52/39/106 122/107/128
f 52/39/106 117/108/121 122/107/128
f 64/46/25 7/7/33 68/51/32
f 64/46/25 68/51/32 123/94/129
f 61/97/20 2/47/19 123/94/129
f 2/47/19 64/46/25 123/94/129
f 118/75/123 51/74/143 123/94/129
f 51/74/143 61/97/20 123/94/129
f 104/109/97 34/4/144 97/45/86
f 104/109/97 97/45/86 124/110/130
f 108/62/105 46/16/98 104/55/97
f 108/62/105 104/55/97 124/111/130
f 99/112/89 42/63/88 124/111/130
f 42/63/88 108/62/105 124/111/130
f 94/51/79 24/24/145 87/75/68
f 94/51/79 87/75/68 125/94/131
f 98/46/87 37/7/80 94/51/79
f 98/46/87 94/51/79 125/94/131
f 89/97/71 32/47/70 125/94/131
f 32/47/70 98/46/87 125/94/131
f 84/105/61 14/14/146 77/61/50
f 84/105/61 77/61/50 126/92/132
f 88/77/69 27/27/62 84/69/61
f 88/77/69 84/69/61 126/106/132
f 79/64/53 22/22/52 126/113/132
f 22/22/52 88/114/69 126/113/132
f 72/109/39 4/4/147 63/45/24
f 72/109/39 63/45/24 127/110/133
f 78/62/51 16/16/40 72/55/39
f 78/62/51 72/55/39 127/111/133
f 65/112/27 12/63/26 127/111/133
f 12/63/26 78/62/51 127/111/133
f 111/66/111 45/15/110 128/115/134
f 45/15/110 113/116/114 128/115/134
f 115/117/118 48/18/117 128/115/134
f 48/18/117 111/66/111 128/115/134
f 119/118/125 60/41/124 128/119/134
f 60/41/124 115/88/118 128/119/134
f 96/83/84 39/23/101 129/91/135
f 39/23/101 106/65/102 129/91/135
f 86/73/66 29/29/83 129/91/135
f 29/29/83 96/83/84 129/91/135
f 76/59/48 19/72/65 129/91/135
f 19/72/65 86/73/66 129/91/135
f 74/57/44 9/9/47 129/91/135
f 9/9/47 76/59/48 129/91/135
f 116/49/120 59/3/43 129/91/135
f 59/3/43 74/57/44 129/91/135
f 67/50/31 6/6/30 130/102/137
f 6/6/30 70/53/36 130/102/137
f 120/80/126 55/25/148 130/102/137
f 55/25/148 67/50/31 130/102/137
f 73/103/42 58/90/41 130/102/137
f 58/90/41 120/80/126 130/102/137
f 101/52/93 35/5/92 131/120/138
f 35/5/92 103/121/96 131/120/138
f 105/122/100 38/123/99 131/120/138
f 38/123/99 101/52/93 131/120/138
f 112/67/112 50/20/149 131/104/138
f 50/20/149 105/124/100 131/104/138
f 91/80/75 25/25/74 132/102/139
f 25/25/74 93/50/78 132/102/139
f 95/103/82 28/90/81 132/102/139
f 28/90/81 91/80/75 132/102/139
f 102/53/94 40/101/150 132/102/139
f 40/101/150 95/103/82 132/102/139
f 81/66/57 15/15/56 133/115/140
f 15/15/56 83/116/60 133/115/140
f 85/117/64 18/18/63 133/115/140
f 18/18/63 81/66/57 133/115/140
f 92/125/76 30/30/151 133/126/140
f 30/30/151 85/71/64 133/126/140
f 69/52/35 5/5/34 134/120/141
f 5/5/34 71/121/38 134/120/141
f 75/122/46 8/123/45 134/120/141
f 8/123/45 69/52/35 134/120/141
f 82/67/58 20/20/152 134/104/141
f 20/20/152 75/124/46 134/104/141
f 61/42/20 51/38/143 53/9/108
f 61/42/20 53/9/108 62/43/22
f 63/45/24 4/4/147 7/7/33
f 63/45/24 7/7/33 64/46/25
f 65/48/27 1/1/23 3/3/21
f 65/48/27 3/3/21 66/49/29
f 67/50/31 55/25/148 68/51/32
f 55/25/148 54/24/122 68/51/32
f 69/52/35 8/123/45 10/101/136
f 69/52/35 10/101/136 70/53/36
f 71/121/38 5/5/34 72/109/39
f 5/5/34 4/4/147 72/109/39
f 73/56/42 10/10/136 9/9/47
f 73/56/42 9/9/47 74/57/44
f 75/58/46 20/127/152 19/72/65
f 75/58/46 19/72/65 76/59/48
f 77/61/50 14/14/146 16/16/40
f 77/61/50 16/16/40 78/62/51
f 79/64/53 11/11/49 13/13/28
f 79/64/53 13/13/28 80/65/55
f 81/66/57 18/18/63 20/20/152
f 81/66/57 20/20/152 82/67/58
f 83/116/60 15/15/56 84/105/61
f 15/15/56 14/14/146 84/105/61
f 85/71/64 30/30/151 29/29/83
f 85/71/64 29/29/83 86/73/66
f 87/75/68 24/24/145 88/77/69
f 24/24/145 27/27/62 88/77/69
f 89/78/71 21/21/67 23/23/54
f 89/78/71 23/23/54 90/79/73
f 91/80/75 28/90/81 92/81/76
f 28/90/81 30/89/151 92/81/76
f 93/50/78 25/25/74 94/51/79
f 25/25/74 24/24/145 94/51/79
f 95/82/82 40/34/150 39/23/101
f 95/82/82 39/23/101 96/83/84
f 97/45/86 34/4/144 37/7/80
f 97/45/86 37/7/80 98/46/87
f 99/84/89 31/31/85 33/29/72
f 99/84/89 33/29/72 100/73/91
f 101/52/93 38/123/99 40/101/150
f 101/52/93 40/101/150 102/53/94
f 103/121/96 35/5/92 104/109/97
f 35/5/92 34/4/144 104/109/97
f 105/85/100 50/128/149 49/13/119
f 105/85/100 49/13/119 106/65/102
f 107/61/104 44/14/142 46/16/98
f 107/61/104 46/16/98 108/62/105
f 109/86/107 41/35/103 43/37/90
f 109/86/107 43/37/90 110/59/109
f 111/66/111 48/18/117 50/20/149
f 111/66/111 50/20/149 112/67/112
f 113/116/114 45/15/110 114/105/115
f 45/15/110 44/14/142 114/105/115
f 115/88/118 60/41/124 59/3/43
f 115/88/118 59/3/43 116/49/120
f 117/77/121 52/76/106 118/75/123
f 52/76/106 51/74/143 118/75/123
f 119/81/125 56/26/113 120/80/126
f 56/26/113 55/25/148 120/80/126
s off
