# Apple ModelIO OBJ File: star
mtllib star.mtl
g 
v 0.1691 0.0624369 -0.00623734
v 0.0248268 0.0176315 -0.0523953
v 0.0698038 0.0777514 -0.00623734
v 0.0540507 0.0894369 -0.00620867
v 0.00895258 0.0291551 -0.052491
v 0.0102563 0.18016 -0.00620867
v -0.00827624 0.180334 -0.00620672
v -0.00958016 0.0293109 -0.0524946
v -0.0536527 0.0903782 -0.00620672
v -0.0696067 0.0789682 -0.00623702
v -0.0256593 0.0180743 -0.0523935
v -0.169152 0.0653894 -0.00623702
v -0.175581 0.0479862 -0.00614531
v -0.0312744 0.000402644 -0.0525636
v -0.103848 -0.0231673 -0.00614531
v -0.0979115 -0.0418686 -0.00619198
v -0.0256555 -0.0184018 -0.0524071
v -0.115781 -0.140863 -0.00619198
v -0.101069 -0.152175 -0.00613765
v -0.0106395 -0.0293006 -0.0525087
v -0.0113228 -0.105988 -0.00613765
v 0.00830099 -0.10616 -0.00613666
v 0.00898436 -0.0294655 -0.052512
v 0.0972359 -0.153911 -0.00613666
v 0.112131 -0.142842 -0.00619412
v 0.0241938 -0.0188386 -0.0524046
v 0.095994 -0.0435601 -0.00619412
v 0.102256 -0.0249657 -0.00614681
v 0.0301362 -0.000133937 -0.0525633
v 0.175217 0.0449223 -0.00614681
v 0.175179 0.0449014 0.00626953
v 0.0301537 -0.00013766 0.0523383
v 0.102246 -0.0249599 0.00626953
v 0.0697987 0.0777406 0.00635975
v 0.0248398 0.017645 0.0521711
v 0.169055 0.0624323 0.00635975
v 0.0102649 0.180117 0.00633118
v 0.00896164 0.0291709 0.0522662
v 0.054042 0.089429 0.00633118
v -0.0536441 0.0903701 0.00632924
v -0.00958894 0.0293268 0.0522698
v -0.00828554 0.180291 0.00632924
v -0.169107 0.0653841 0.00635944
v -0.0256721 0.018088 0.0521691
v -0.0696018 0.0789574 0.00635944
v -0.103838 -0.0231618 0.00626804
v -0.0312919 0.000399229 0.0523386
v -0.175543 0.0479647 0.00626804
v -0.115762 -0.140823 0.00631454
v -0.0256725 -0.0184097 0.0521829
v -0.0978998 -0.0418673 0.00631454
v -0.0113249 -0.105977 0.00626041
v -0.0106418 -0.0293186 0.0522842
v -0.101037 -0.152146 0.00626041
v 0.0972042 -0.153882 0.00625942
v 0.00898643 -0.0294835 0.0522875
v 0.00830332 -0.106149 0.00625942
v 0.0959823 -0.0435586 0.00631667
v 0.0242106 -0.0188468 0.0521804
v 0.112113 -0.142801 0.00631667
v 0.0607359 0.0819979 -0.00592865
v 0.0133272 0.0186289 -0.0551524
v 0.178645 0.0556973 -0.00543766
v 0.0221153 0.00708651 -0.0558438
v 0.0712317 0.0801184 6.6432e-05
v 0.172709 0.0629595 6.3393e-05
v 0.00104873 0.187036 -0.00545165
v -0.000361981 0.0236415 -0.0558666
v 0.00971628 0.183748 6.34455e-05
v 0.0559041 0.0914751 6.64575e-05
v -0.0604661 0.0830567 -0.00592756
v -0.0141392 0.0188673 -0.055153
v -0.0554703 0.0924477 6.6459e-05
v -0.0076744 0.183911 6.34485e-05
v -0.178816 0.0588182 -0.00543685
v -0.023129 0.0074827 -0.0558424
v -0.172751 0.0659747 6.3393e-05
v -0.0709935 0.0813595 6.6432e-05
v -0.0989856 -0.0319067 -0.00587581
v -0.0227819 -0.00715627 -0.0551854
v -0.106362 -0.0242558 6.64995e-05
v -0.178771 0.0496365 6.354e-05
v -0.112456 -0.151993 -0.00541339
v -0.0147939 -0.0192903 -0.0558061
v -0.117444 -0.144082 6.34515e-05
v -0.100604 -0.0424513 6.6456e-05
v -0.00149324 -0.104084 -0.00584537
v -0.000774236 -0.0233949 -0.0552049
v -0.0110793 -0.108717 6.6498e-05
v -0.103627 -0.154695 6.354e-05
v 0.108618 -0.15392 -0.00541388
v 0.0133169 -0.0195334 -0.0558069
v 0.0997489 -0.156475 6.3543e-05
v 0.00800932 -0.108884 6.64995e-05
v 0.0972419 -0.0336184 -0.00587756
v 0.021516 -0.00754368 -0.0551844
v 0.0986763 -0.04419 6.6456e-05
v 0.113738 -0.14609 6.34485e-05
v 0.104751 -0.0260981 6.64995e-05
v 0.178436 0.0465172 6.35385e-05
v 0.0972319 -0.033615 0.0060013
v 0.0215294 -0.00754837 0.0549426
v 0.17861 0.0556868 0.00556421
v 0.022123 0.007089 0.0556004
v 0.0607295 0.0819893 0.00605219
v 0.0133358 0.0186404 0.0549107
v 0.00104842 0.187 0.00557815
v -0.00036191 0.0236494 0.0556232
v -0.0604598 0.083048 0.0060511
v -0.0141476 0.018879 0.0549113
v -0.178782 0.058807 0.0055634
v -0.0231366 0.00748532 0.0555992
v -0.0989755 -0.0319034 0.00599954
v -0.0227954 -0.00716072 0.0549437
v -0.112435 -0.151964 0.00554002
v -0.0147988 -0.0192968 0.055563
v -0.00149314 -0.104074 0.00596923
v -0.000774363 -0.0234089 0.0549632
v 0.108597 -0.153891 0.00554053
v 0.0133217 -0.0195401 0.0555638
v 0.181828 0.0566947 6.6114e-05
v -0.000569654 -9.25585e-05 -0.0589935
v 0.100677 -0.0348065 6.8841e-05
v 0.110547 -0.156631 6.61395e-05
v -0.00152571 -0.107718 6.8865e-05
v -0.114432 -0.15467 6.61395e-05
v -0.102441 -0.0330341 6.88425e-05
v -0.181981 0.0598708 6.61155e-05
v -0.0625974 0.0860045 6.8805e-05
v 0.00107775 0.190376 6.6099e-05
v 0.0629174 0.0849089 6.88035e-05
v -0.000569655 -9.25927e-05 0.0587288
vn 0.234193 0.590756 -0.772115
vn 0.120822 0.263163 -0.957156
vn 0.195396 0.631638 -0.750236
vn 0.546933 0.370953 -0.750505
vn 0.215376 0.191899 -0.95749
vn 0.492383 0.398058 -0.774021
vn -0.484127 0.406423 -0.774881
vn -0.211494 0.195731 -0.95758
vn -0.539359 0.380352 -0.751281
vn -0.184064 0.635856 -0.749539
vn -0.11593 0.265547 -0.957102
vn -0.22367 0.5958 -0.771359
vn -0.534747 -0.328952 -0.778355
vn -0.249154 -0.138004 -0.958581
vn -0.52635 -0.393716 -0.753621
vn -0.659582 0.0212401 -0.751332
vn -0.285695 -0.0287596 -0.957889
vn -0.633321 -0.0302216 -0.773299
vn 0.149513 -0.610554 -0.777733
vn 0.0540312 -0.278964 -0.95878
vn 0.211582 -0.621829 -0.75403
vn -0.223137 -0.618579 -0.753372
vn -0.0592585 -0.278041 -0.95874
vn -0.160646 -0.608499 -0.777124
vn 0.631943 -0.0415468 -0.773901
vn 0.285032 -0.0340708 -0.957912
vn 0.659148 0.00919881 -0.751957
vn 0.519767 -0.403768 -0.752871
vn 0.246746 -0.142806 -0.9585
vn 0.529438 -0.339195 -0.777588
vn 0.526807 -0.337157 0.780256
vn 0.245198 -0.141537 0.959086
vn 0.517874 -0.401648 0.755305
vn 0.194559 0.630645 0.751288
vn 0.119761 0.26188 0.957641
vn 0.233025 0.589582 0.773365
vn 0.4896 0.396201 0.776734
vn 0.213659 0.190816 0.958091
vn 0.544311 0.369804 0.752975
vn -0.538663 0.379256 0.752334
vn -0.210596 0.194333 0.958063
vn -0.483371 0.40493 0.776134
vn -0.222787 0.592577 0.774092
vn -0.115439 0.263565 0.95771
vn -0.183791 0.632991 0.752026
vn -0.525096 -0.393387 0.754666
vn -0.247553 -0.137576 0.959057
vn -0.53308 -0.328692 0.779608
vn -0.630002 -0.0303608 0.776
vn -0.283678 -0.0288963 0.958484
vn -0.656787 0.020615 0.753795
vn 0.211666 -0.620537 0.75507
vn 0.0541227 -0.277311 0.959255
vn 0.14977 -0.608895 0.778984
vn -0.159521 -0.605382 0.779786
vn -0.0585287 -0.276182 0.959322
vn -0.221697 -0.616127 0.755803
vn 0.657949 0.00968853 0.753
vn 0.283488 -0.0334616 0.958392
vn 0.630459 -0.0408027 0.77515
vn 0.359915 0.486086 -0.796355
vn 0.157693 0.212921 -0.96426
vn 0.468668 0.15797 -0.869135
vn 0.153091 0.0503809 -0.986927
vn 0.30068 0.953725 0.000195994
vn 0.371393 0.928475 0.000914001
vn 0.00478414 0.49491 -0.868931
vn 0.00167775 0.161286 -0.986906
vn 0.774493 0.632574 0.00326749
vn 0.824415 0.56598 0.00255108
vn -0.350953 0.492531 -0.796395
vn -0.153538 0.215872 -0.964275
vn -0.814421 0.580275 0.00019997
vn -0.763122 0.646254 0.000925225
vn -0.465619 0.166704 -0.869143
vn -0.152035 0.0534805 -0.986927
vn -0.355035 0.934847 0.00326329
vn -0.284008 0.958819 0.00256456
vn -0.574422 -0.180778 -0.798347
vn -0.250321 -0.0784777 -0.964977
vn -0.803577 -0.5952 0.000204363
vn -0.854536 -0.519391 0.000933726
vn -0.298693 -0.393174 -0.869596
vn -0.096948 -0.128419 -0.98697
vn -0.998653 -0.0517877 0.00324724
vn -0.999663 0.0258364 0.00254577
vn -0.00547702 -0.600639 -0.799502
vn -0.00250165 -0.260801 -0.96539
vn 0.317247 -0.948343 0.000203031
vn 0.233252 -0.972416 0.000928156
vn 0.291696 -0.398409 -0.869588
vn 0.094421 -0.130291 -0.98697
vn -0.249912 -0.968263 0.00324206
vn -0.333764 -0.942653 0.00252175
vn 0.57111 -0.191253 -0.798283
vn 0.248848 -0.0832967 -0.964954
vn 0.999965 0.00838883 0.000197443
vn 0.99762 -0.0689424 0.000915392
vn 0.793058 -0.609141 0.00252444
vn 0.845284 -0.534307 0.00325447
vn 0.569313 -0.190153 0.799828
vn 0.247426 -0.0823355 0.965402
vn 0.465796 0.157552 0.870753
vn 0.151919 0.0504552 0.987104
vn 0.358304 0.48471 0.797919
vn 0.15633 0.211858 0.964716
vn 0.00425788 0.492043 0.87056
vn 0.00122369 0.160192 0.987085
vn -0.350143 0.490568 0.797962
vn -0.152947 0.214243 0.964732
vn -0.463065 0.165311 0.870772
vn -0.151134 0.0527134 0.987107
vn -0.572315 -0.180614 0.799897
vn -0.2486 -0.0784182 0.965427
vn -0.29661 -0.391166 0.871213
vn -0.0959594 -0.127787 0.987149
vn -0.00498623 -0.598593 0.801038
vn -0.00202876 -0.259155 0.965834
vn 0.290407 -0.395825 0.871198
vn 0.0941174 -0.129163 0.987147
vn 0.946915 0.321466 0.00340495
vn 1.66066e-05 0.000572332 -1
vn 0.948079 -0.318031 0.00135235
vn 0.591984 -0.805942 0.00339224
vn -0.0087426 -0.999961 0.00134663
vn -0.605356 -0.795947 0.00339238
vn -0.953488 -0.301427 0.00135226
vn -0.941063 0.338213 0.00340425
vn -0.581095 0.813835 0.00136211
vn 0.00919627 0.999952 0.00341381
vn 0.595189 0.803585 0.00136232
vn 1.65591e-05 0.000570523 1
vt 499.155 -498.688
vt 499.876 -498.912
vt 499.651 -498.611
vt 499.73 -498.553
vt 499.955 -498.854
vt 499.949 -498.099
vt 500.041 -498.098
vt 500.048 -498.853
vt 500.268 -498.548
vt 500.348 -498.605
vt 500.128 -498.91
vt 500.846 -498.673
vt 500.878 -498.76
vt 500.156 -498.998
vt 500.519 -499.116
vt 500.49 -499.209
vt 500.128 -499.092
vt 500.579 -499.704
vt 500.505 -499.761
vt 500.053 -499.147
vt 500.057 -499.53
vt 499.958 -499.531
vt 499.955 -499.147
vt 499.514 -499.769
vt 499.439 -499.714
vt 499.879 -499.094
vt 499.52 -499.218
vt 499.489 -499.125
vt 499.849 -499.001
vt 499.124 -498.775
vt 500.876 -498.775
vt 500.151 -499.001
vt 500.511 -499.125
vt 500.349 -498.611
vt 500.124 -498.912
vt 500.845 -498.688
vt 500.051 -498.099
vt 500.045 -498.854
vt 500.27 -498.553
vt 499.732 -498.548
vt 499.952 -498.853
vt 499.959 -498.099
vt 499.154 -498.673
vt 499.872 -498.91
vt 499.652 -498.605
vt 499.481 -499.116
vt 499.844 -498.998
vt 499.122 -498.76
vt 499.421 -499.704
vt 499.872 -499.092
vt 499.51 -499.209
vt 499.943 -499.53
vt 499.947 -499.147
vt 499.495 -499.761
vt 500.486 -499.769
vt 500.045 -499.147
vt 500.042 -499.531
vt 500.48 -499.218
vt 500.121 -499.094
vt 500.561 -499.714
vt 499.696 -498.59
vt 499.933 -498.907
vt 499.107 -498.722
vt 499.889 -498.965
vt 500.349 -498.98
vt 500.356 -499.001
vt 500.845 -498.98
vt 500.864 -499.001
vt 499.995 -498.065
vt 500.002 -498.882
vt 500.02 -498.099
vt 499.999 -498.081
vt 499.999 -498.543
vt 500.02 -498.553
vt 500.302 -498.585
vt 500.071 -498.906
vt 499.98 -498.548
vt 500.001 -498.538
vt 499.98 -498.098
vt 500.001 -498.08
vt 500.894 -498.706
vt 500.116 -498.963
vt 499.154 -498.98
vt 499.136 -499.001
vt 499.645 -499.001
vt 499.652 -498.98
vt 500.495 -499.16
vt 500.114 -499.036
vt 499.98 -499.116
vt 500.001 -499.121
vt 499.98 -498.76
vt 500.001 -498.752
vt 500.562 -499.76
vt 500.074 -499.096
vt 499.98 -499.704
vt 500.001 -499.72
vt 500.001 -499.212
vt 499.98 -499.209
vt 500.007 -499.52
vt 500.004 -499.117
vt 499.943 -499.02
vt 499.945 -498.999
vt 499.495 -499.02
vt 499.482 -498.999
vt 499.457 -499.77
vt 499.933 -499.098
vt 500.486 -499.02
vt 500.499 -498.999
vt 500.04 -498.999
vt 500.041 -499.02
vt 499.514 -499.168
vt 499.892 -499.038
vt 500.02 -499.218
vt 499.999 -499.221
vt 500.02 -499.714
vt 499.999 -499.73
vt 500.511 -498.979
vt 500.524 -498.999
vt 500.876 -498.979
vt 500.892 -498.999
vt 500.486 -499.168
vt 500.108 -499.038
vt 500.893 -498.722
vt 500.111 -498.965
vt 500.304 -498.59
vt 500.067 -498.907
vt 500.005 -498.065
vt 499.998 -498.882
vt 499.698 -498.585
vt 499.929 -498.906
vt 499.106 -498.706
vt 499.884 -498.963
vt 499.505 -499.16
vt 499.886 -499.036
vt 499.438 -499.76
vt 499.926 -499.096
vt 499.993 -499.52
vt 499.996 -499.117
vt 500.543 -499.769
vt 500.067 -499.098
vt 499.981 -498.722
vt 499.979 -498.775
vt 499.999 -498.717
vt 499.999 -498.767
vt 500.003 -499
vt 500.019 -499.168
vt 499.999 -499.174
vt 500.553 -498.999
vt 500.543 -499.018
vt 499.993 -499.019
vt 499.992 -498.999
vt 500.001 -499.773
vt 499.982 -499.76
vt 500.532 -499.121
vt 500.512 -499.165
vt 499.09 -499.001
vt 499.106 -498.982
vt 500.277 -498.538
vt 500.313 -498.57
vt 500.049 -499.001
vt 500.051 -498.98
vt 500.005 -499.001
vt 500.005 -498.982
vt 500.304 -498.981
vt 500.315 -499.001
vt 499.997 -499
vt 500.845 -499.022
vt 500.909 -499.001
vt 500.893 -499.019
vt 500.893 -498.982
vt 500.02 -498.775
vt 500.018 -498.722
vt 499.979 -499.168
vt 499.978 -499.218
vt 500.524 -499.13
vt 500.503 -499.174
vt 500.02 -499.125
vt 499.999 -499.13
vt 500.543 -498.981
vt 500.486 -498.979
vt 499.978 -499.714
vt 499.999 -499.783
vt 499.981 -499.769
vt 500.018 -499.77
vt 499.993 -498.98
vt 499.943 -498.979
vt 500.042 -498.979
vt 500.019 -499.76
vt 500.022 -499.704
vt 499.495 -498.979
vt 499.428 -498.999
vt 499.438 -498.981
vt 499.438 -499.018
vt 500.021 -499.16
vt 500.021 -499.116
vt 500.001 -499.165
vt 500.022 -499.209
vt 499.981 -499.16
vt 499.106 -499.019
vt 499.154 -499.022
vt 500.021 -498.76
vt 500.001 -498.701
vt 500.019 -498.706
vt 499.982 -498.706
vt 499.698 -499.021
vt 499.732 -499.022
vt 499.723 -499.001
vt 499.687 -499.001
vt 499.652 -499.022
vt 499.698 -498.981
vt 500.005 -499.019
vt 500.051 -499.022
vt 499.962 -499.001
vt 499.959 -499.022
vt 499.959 -498.98
vt 500.304 -499.021
vt 500.349 -499.022
vt 500.28 -498.543
vt 500.315 -498.575
vt 500.27 -498.98
vt 500.28 -499.001
vt 499.978 -498.099
vt 499.978 -498.553
vt 500.022 -498.548
vt 500.022 -498.099
vt 499.468 -498.999
vt 499.481 -498.979
vt 499.122 -498.979
vt 499.106 -498.999
vt 500.511 -499.02
vt 500.876 -499.02
usemtl material_1
f 1/1/1 2/2/2 3/3/3
f 4/4/4 5/5/5 6/6/6
f 7/7/7 8/8/8 9/9/9
f 10/10/10 11/11/11 12/12/12
f 13/13/13 14/14/14 15/15/15
f 16/16/16 17/17/17 18/18/18
f 19/19/19 20/20/20 21/21/21
f 22/22/22 23/23/23 24/24/24
f 25/25/25 26/26/26 27/27/27
f 28/28/28 29/29/29 30/30/30
f 31/31/31 32/32/32 33/33/33
f 34/34/34 35/35/35 36/36/36
f 37/37/37 38/38/38 39/39/39
f 40/40/40 41/41/41 42/42/42
f 43/43/43 44/44/44 45/45/45
f 46/46/46 47/47/47 48/48/48
f 49/49/49 50/50/50 51/51/51
f 52/52/52 53/53/53 54/54/54
f 55/55/55 56/56/56 57/57/57
f 58/58/58 59/59/59 60/60/60
f 4/4/4 61/61/61 5/5/5
f 61/61/61 62/62/62 5/5/5
f 1/1/1 63/63/63 64/64/64
f 1/1/1 64/64/64 2/2/2
f 3/65/3 65/66/65 1/67/1
f 65/66/65 66/68/66 1/67/1
f 7/7/7 67/69/67 68/70/68
f 7/7/7 68/70/68 8/8/8
f 6/71/6 69/72/69 70/73/70
f 6/71/6 70/73/70 4/74/4
f 10/10/10 71/75/71 11/11/11
f 71/75/71 72/76/72 11/11/11
f 9/77/9 73/78/73 7/79/7
f 73/78/73 74/80/74 7/79/7
f 13/13/13 75/81/75 76/82/76
f 13/13/13 76/82/76 14/14/14
f 12/83/12 77/84/77 78/85/78
f 12/83/12 78/85/78 10/86/10
f 16/16/16 79/87/79 17/17/17
f 79/87/79 80/88/80 17/17/17
f 15/89/15 81/90/81 13/91/13
f 81/90/81 82/92/82 13/91/13
f 19/19/19 83/93/83 84/94/84
f 19/19/19 84/94/84 20/20/20
f 18/95/18 85/96/85 86/97/86
f 18/95/18 86/97/86 16/98/16
f 22/22/22 87/99/87 23/23/23
f 87/99/87 88/100/88 23/23/23
f 21/101/21 89/102/89 19/103/19
f 89/102/89 90/104/90 19/103/19
f 25/25/25 91/105/91 92/106/92
f 25/25/25 92/106/92 26/26/26
f 24/107/24 93/108/93 94/109/94
f 24/107/24 94/109/94 22/110/22
f 28/28/28 95/111/95 29/29/29
f 95/111/95 96/112/96 29/29/29
f 27/113/27 97/114/97 25/115/25
f 97/114/97 98/116/98 25/115/25
f 33/117/33 99/118/99 31/119/31
f 99/118/99 100/120/100 31/119/31
f 58/58/58 101/121/101 59/59/59
f 101/121/101 102/122/102 59/59/59
f 31/31/31 103/123/103 104/124/104
f 31/31/31 104/124/104 32/32/32
f 34/34/34 105/125/105 35/35/35
f 105/125/105 106/126/106 35/35/35
f 37/37/37 107/127/107 108/128/108
f 37/37/37 108/128/108 38/38/38
f 40/40/40 109/129/109 41/41/41
f 109/129/109 110/130/110 41/41/41
f 43/43/43 111/131/111 112/132/112
f 43/43/43 112/132/112 44/44/44
f 46/46/46 113/133/113 47/47/47
f 113/133/113 114/134/114 47/47/47
f 49/49/49 115/135/115 116/136/116
f 49/49/49 116/136/116 50/50/50
f 52/52/52 117/137/117 53/53/53
f 117/137/117 118/138/118 53/53/53
f 55/55/55 119/139/119 120/140/120
f 55/55/55 120/140/120 56/56/56
f 103/141/103 31/142/31 121/143/121
f 31/142/31 100/144/100 121/143/121
f 62/62/62 2/2/2 122/145/122
f 2/2/2 64/64/64 122/145/122
f 97/114/97 27/113/27 95/146/95
f 97/114/97 95/146/95 123/147/123
f 93/108/93 24/107/24 124/148/124
f 24/107/24 91/149/91 124/148/124
f 89/102/89 21/101/21 87/150/87
f 89/102/89 87/150/87 125/151/125
f 85/96/85 18/95/18 126/152/126
f 18/95/18 83/153/83 126/152/126
f 81/154/81 15/15/15 79/87/79
f 81/154/81 79/87/79 127/155/127
f 77/84/77 12/83/12 128/156/128
f 12/83/12 75/157/75 128/156/128
f 73/158/73 9/9/9 71/75/71
f 73/158/73 71/75/71 129/159/129
f 69/160/69 6/161/6 130/162/130
f 6/161/6 67/163/67 130/162/130
f 65/66/65 3/65/3 61/164/61
f 65/66/65 61/164/61 131/165/131
f 118/138/118 56/56/56 132/166/132
f 56/56/56 120/140/120 132/166/132
f 66/68/66 36/167/36 121/168/121
f 36/167/36 103/169/103 121/168/121
f 63/170/63 1/67/1 121/168/121
f 1/67/1 66/68/66 121/168/121
f 100/144/100 30/171/30 121/143/121
f 30/171/30 63/172/63 121/143/121
f 68/70/68 5/5/5 122/145/122
f 5/5/5 62/62/62 122/145/122
f 72/76/72 8/8/8 122/145/122
f 8/8/8 68/70/68 122/145/122
f 76/82/76 11/11/11 122/145/122
f 11/11/11 72/76/72 122/145/122
f 80/88/80 14/14/14 122/145/122
f 14/14/14 76/82/76 122/145/122
f 84/94/84 17/17/17 122/145/122
f 17/17/17 80/88/80 122/145/122
f 88/100/88 20/20/20 122/145/122
f 20/20/20 84/94/84 122/145/122
f 92/106/92 23/23/23 122/145/122
f 23/23/23 88/100/88 122/145/122
f 96/112/96 26/26/26 122/145/122
f 26/26/26 92/106/92 122/145/122
f 64/64/64 29/29/29 122/145/122
f 29/29/29 96/112/96 122/145/122
f 101/173/101 58/174/58 97/114/97
f 101/173/101 97/114/97 123/147/123
f 99/175/99 33/33/33 101/121/101
f 99/175/99 101/121/101 123/176/123
f 95/146/95 28/177/28 99/178/99
f 95/146/95 99/178/99 123/147/123
f 119/179/119 55/180/55 124/148/124
f 55/180/55 93/108/93 124/148/124
f 98/116/98 60/181/60 124/182/124
f 60/181/60 119/183/119 124/182/124
f 91/184/91 25/115/25 124/182/124
f 25/115/25 98/116/98 124/182/124
f 117/185/117 52/186/52 89/102/89
f 117/185/117 89/102/89 125/151/125
f 94/109/94 57/187/57 117/185/117
f 94/109/94 117/185/117 125/151/125
f 87/150/87 22/110/22 94/109/94
f 87/150/87 94/109/94 125/151/125
f 115/188/115 49/189/49 126/152/126
f 49/189/49 85/96/85 126/152/126
f 90/104/90 54/190/54 126/191/126
f 54/190/54 115/192/115 126/191/126
f 83/193/83 19/103/19 126/191/126
f 19/103/19 90/104/90 126/191/126
f 113/194/113 46/195/46 81/90/81
f 113/194/113 81/90/81 127/196/127
f 86/97/86 51/197/51 113/194/113
f 86/97/86 113/194/113 127/196/127
f 79/198/79 16/98/16 86/97/86
f 79/198/79 86/97/86 127/196/127
f 111/199/111 43/200/43 128/156/128
f 43/200/43 77/84/77 128/156/128
f 82/92/82 48/201/48 128/202/128
f 48/201/48 111/203/111 128/202/128
f 75/204/75 13/91/13 128/202/128
f 13/91/13 82/92/82 128/202/128
f 109/205/109 40/206/40 73/207/73
f 109/205/109 73/207/73 129/208/129
f 78/85/78 45/209/45 109/205/109
f 78/85/78 109/205/109 129/208/129
f 71/210/71 10/86/10 78/85/78
f 71/210/71 78/85/78 129/208/129
f 107/211/107 37/212/37 130/162/130
f 37/212/37 69/160/69 130/162/130
f 74/213/74 42/214/42 130/162/130
f 42/214/42 107/211/107 130/162/130
f 67/163/67 7/215/7 130/162/130
f 7/215/7 74/213/74 130/162/130
f 105/216/105 34/217/34 65/66/65
f 105/216/105 65/66/65 131/165/131
f 70/218/70 39/39/39 105/125/105
f 70/218/70 105/125/105 131/219/131
f 61/164/61 4/220/4 70/221/70
f 61/164/61 70/221/70 131/165/131
f 116/136/116 53/53/53 132/166/132
f 53/53/53 118/138/118 132/166/132
f 114/134/114 50/50/50 132/166/132
f 50/50/50 116/136/116 132/166/132
f 112/132/112 47/47/47 132/166/132
f 47/47/47 114/134/114 132/166/132
f 110/130/110 44/44/44 132/166/132
f 44/44/44 112/132/112 132/166/132
f 108/128/108 41/41/41 132/166/132
f 41/41/41 110/130/110 132/166/132
f 106/126/106 38/38/38 132/166/132
f 38/38/38 108/128/108 132/166/132
f 104/124/104 35/35/35 132/166/132
f 35/35/35 106/126/106 132/166/132
f 102/122/102 32/32/32 132/166/132
f 32/32/32 104/124/104 132/166/132
f 120/140/120 59/59/59 132/166/132
f 59/59/59 102/122/102 132/166/132
f 61/61/61 3/3/3 2/2/2
f 61/61/61 2/2/2 62/62/62
f 63/63/63 30/30/30 64/64/64
f 30/30/30 29/29/29 64/64/64
f 65/66/65 34/217/34 36/167/36
f 65/66/65 36/167/36 66/68/66
f 67/69/67 6/6/6 68/70/68
f 6/6/6 5/5/5 68/70/68
f 69/72/69 37/222/37 70/73/70
f 37/222/37 39/223/39 70/73/70
f 71/75/71 9/9/9 8/8/8
f 71/75/71 8/8/8 72/76/72
f 73/78/73 40/224/40 42/225/42
f 73/78/73 42/225/42 74/80/74
f 75/81/75 12/12/12 76/82/76
f 12/12/12 11/11/11 76/82/76
f 77/84/77 43/200/43 78/85/78
f 43/200/43 45/209/45 78/85/78
f 79/87/79 15/15/15 14/14/14
f 79/87/79 14/14/14 80/88/80
f 81/226/81 46/227/46 48/228/48
f 81/226/81 48/228/48 82/229/82
f 83/93/83 18/18/18 84/94/84
f 18/18/18 17/17/17 84/94/84
f 85/96/85 49/189/49 86/97/86
f 49/189/49 51/197/51 86/97/86
f 87/99/87 21/21/21 20/20/20
f 87/99/87 20/20/20 88/100/88
f 89/102/89 52/186/52 54/190/54
f 89/102/89 54/190/54 90/104/90
f 91/105/91 24/24/24 92/106/92
f 24/24/24 23/23/23 92/106/92
f 93/108/93 55/180/55 94/109/94
f 55/180/55 57/187/57 94/109/94
f 95/111/95 27/27/27 26/26/26
f 95/111/95 26/26/26 96/112/96
f 97/114/97 58/174/58 60/181/60
f 97/114/97 60/181/60 98/116/98
f 99/118/99 28/230/28 30/231/30
f 99/118/99 30/231/30 100/120/100
f 101/121/101 33/33/33 32/32/32
f 101/121/101 32/32/32 102/122/102
f 103/123/103 36/36/36 104/124/104
f 36/36/36 35/35/35 104/124/104
f 105/125/105 39/39/39 38/38/38
f 105/125/105 38/38/38 106/126/106
f 107/127/107 42/42/42 108/128/108
f 42/42/42 41/41/41 108/128/108
f 109/129/109 45/45/45 44/44/44
f 109/129/109 44/44/44 110/130/110
f 111/131/111 48/48/48 112/132/112
f 48/48/48 47/47/47 112/132/112
f 113/133/113 51/51/51 50/50/50
f 113/133/113 50/50/50 114/134/114
f 115/135/115 54/54/54 116/136/116
f 54/54/54 53/53/53 116/136/116
f 117/137/117 57/57/57 56/56/56
f 117/137/117 56/56/56 118/138/118
f 119/139/119 60/60/60 120/140/120
f 60/60/60 59/59/59 120/140/120
s off
